<svg width="36" height="57" viewBox="0 0 36 57" fill="none" xmlns="http://www.w3.org/2000/svg">
<path d="M9.12564 55.6231C8.9018 55.8423 8.62987 56.0062 8.33157 56.1019C8.03326 56.1976 7.71666 56.2223 7.40711 56.1743C6.39375 56.0053 6.06195 55.4809 4.45894 52.9624C3.97897 52.2068 2.97747 50.592 2.81745 50.2957C0.621958 45.9638 -0.317361 41.3831 0.0944925 37.0009C0.355519 34.22 1.1185 31.5095 2.34633 29.0008C2.41453 28.8586 2.17455 28.2453 2.13899 28.0764C2.06194 27.6991 1.99374 27.3228 1.93448 26.9475C1.81011 26.1573 1.71923 25.3672 1.66194 24.5771C1.40839 21.4272 1.8296 18.2595 2.8975 15.2853C4.14492 11.7297 6.03231 8.32818 8.64267 5.57557C10.4028 3.70826 12.4959 2.1859 14.8145 1.08667C15.5222 0.758105 16.326 0.701234 17.0729 0.926882C17.8197 1.15253 18.4576 1.64494 18.865 2.31037C19.7894 3.81557 22.5183 7.78002 27.8279 12.0675C32.5509 15.8808 37.099 20.7134 34.9894 27.6409C34.3077 29.7908 33.114 31.7431 31.5109 33.3298L23.6679 41.2379C23.336 41.5856 22.9015 41.8178 22.428 41.9004C21.9544 41.9831 21.4669 41.9119 21.0368 41.6971C20.6075 41.4778 20.2636 41.1215 20.0596 40.6846C19.8557 40.2477 19.8033 39.7553 19.9109 39.2853C19.9316 39.1994 19.9464 39.1223 19.9583 39.0424C20.1923 37.6734 19.9583 36.0319 19.2916 34.1594C18.0738 30.7549 15.7953 27.2586 13.3538 25.0364C13.1019 24.8053 12.8501 24.5801 12.5983 24.3579C12.3464 24.1356 12.1034 23.9164 11.8516 23.6882C9.70868 25.2348 7.91233 27.2118 6.57747 29.4927C9.06045 37.4661 15.3775 41.3446 17.7331 42.5298C18.2414 42.7889 18.6457 43.2141 18.8791 43.7348C19.1124 44.2554 19.1608 44.8401 19.0161 45.392C18.8882 45.8445 18.6405 46.254 18.299 46.5772L9.12564 55.6231ZM4.48857 34.6986C4.27882 35.5761 4.13032 36.4672 4.04417 37.3653C3.70635 40.986 4.50042 44.832 6.34934 48.4913C6.4945 48.7461 7.29158 50.032 8.0056 51.1579L14.1864 45.0809C11.6086 43.4572 7.33307 40.1446 4.48857 34.6986ZM15.5049 21.6289C15.6768 21.786 15.8516 21.9252 16.0235 22.1C18.9598 24.7667 21.582 28.7757 23.0368 32.8142C23.3547 33.6823 23.6044 34.5739 23.7835 35.4809L28.6931 30.5298C29.8417 29.4019 30.6989 28.0119 31.1909 26.4793C31.8072 24.4556 31.7835 22.4467 30.0828 19.9608C24.7494 19.2763 19.7716 19.8275 15.6235 21.5667L15.5049 21.6289ZM5.60268 24.029V24.0645C6.65228 22.8519 7.82609 21.7525 9.10494 20.7845C8.96562 20.5979 8.82639 20.4082 8.69008 20.2097C7.84052 18.9354 7.21977 17.5226 6.85602 16.0348L6.80861 16.1623C5.86749 18.673 5.45692 21.3516 5.60268 24.029ZM14.9805 5.5015C11.0604 7.90151 9.38641 12.8348 11.3893 16.9682C11.5538 17.3182 11.745 17.655 11.9612 17.9756C12.1271 18.2186 12.3019 18.4497 12.4857 18.6749C13.0071 18.4082 13.5434 18.1593 14.0886 17.9312C17.6442 16.4497 21.6946 15.7149 26.0205 15.7327L25.3361 15.1696C20.2486 11.063 17.3183 7.23484 15.8545 5.00964C15.5642 5.15779 15.2679 5.32668 14.9805 5.5015Z" fill="url(#paint0_linear_2246_1537)"/>
<defs>
<linearGradient id="paint0_linear_2246_1537" x1="10.9716" y1="61.0276" x2="22.8797" y2="1.24371" gradientUnits="userSpaceOnUse">
<stop stop-color="white"/>
<stop offset="1" stop-color="white" stop-opacity="0.5"/>
</linearGradient>
</defs>
</svg>
