<svg width="241" height="108" viewBox="0 0 241 108" fill="none" xmlns="http://www.w3.org/2000/svg">
<path d="M17.5275 106.877C16.6511 107.749 15.4218 108.147 14.2097 107.951C12.2691 107.627 11.626 106.605 8.5472 101.691C7.62527 100.224 5.69036 97.0877 5.39443 96.4871C1.19454 88.0496 -0.60948 79.0981 0.181557 70.5855C0.693739 65.0587 2.18476 59.7859 4.50665 54.9752C4.63754 54.698 4.17658 53.5026 4.10829 53.1734C3.96032 52.4457 3.82943 51.7123 3.71561 50.973C3.47659 49.4426 3.30018 47.8949 3.19205 46.3471C2.74247 39.9136 3.49367 34.2597 5.56516 28.2535C7.96103 21.3003 11.5861 14.6935 16.5998 9.32833C19.9802 5.71308 23.9866 2.70999 28.4369 0.590509C31.2539 -0.755105 34.6059 0.2671 36.2335 2.9641C38.009 5.89789 43.239 13.6251 53.4485 21.9875C62.5255 29.4201 71.2553 38.8336 67.2034 52.3418C65.9969 56.3613 63.6864 60.196 60.528 63.4301L45.4641 78.844C44.1438 80.1954 42.0951 80.617 40.4334 79.7392C38.7261 78.8382 37.8554 76.9382 38.2708 75.0382C38.3107 74.8707 38.3391 74.7205 38.3619 74.5646C38.8058 71.8965 38.379 68.697 37.0814 65.0471C34.7254 58.4115 30.3434 51.5968 25.6541 47.2654C25.1703 46.8149 24.6866 46.376 24.2029 45.9429C23.7305 45.5155 23.2525 45.0824 22.7745 44.6435C18.6372 47.6697 15.1942 51.5275 12.6447 55.9512C17.4136 71.4922 29.5467 79.0461 34.0709 81.3908C36.0058 82.3899 37.1269 84.6654 36.5351 86.9697C36.3075 87.859 35.8067 88.656 35.1579 89.297L17.5275 106.877ZM8.62118 66.0924C8.22281 67.7903 7.93258 69.5344 7.76754 71.3074C7.11309 78.3647 8.64394 85.8608 12.1951 92.9932C12.4682 93.4898 14.0048 95.9962 15.3763 98.1735L27.2475 86.3286C22.2964 83.1638 14.0845 76.7072 8.62118 66.0924ZM29.78 40.6182C30.1101 40.9185 30.4458 41.2246 30.7816 41.5307C36.4213 46.7399 41.4577 54.5421 44.252 62.4136C44.8894 64.2039 45.3674 65.948 45.6861 67.6228L55.1159 57.9725C57.4094 55.6221 59.0711 52.8962 59.9134 50.0779C61.0971 46.1335 61.0402 42.2179 57.7793 37.3841C47.547 36.05 37.9806 37.1242 30.0076 40.5142C29.9279 40.5546 29.854 40.5893 29.78 40.6182ZM10.761 45.2961L10.7667 45.3654C12.7755 43.0149 15.0235 40.8665 17.4933 38.9723C17.2201 38.6084 16.9527 38.233 16.6909 37.8519C15.1202 35.536 13.9365 32.7524 13.1682 29.7147C13.1398 29.7955 13.1056 29.8821 13.0772 29.963C11.2902 34.8603 10.4593 40.0811 10.761 45.2961ZM28.7727 9.18395C21.2436 13.8561 18.0339 23.4775 21.8753 31.5338C22.2054 32.2269 22.5753 32.8737 22.9793 33.4743C23.298 33.9479 23.6338 34.3983 23.9866 34.843C24.9882 34.3232 26.0126 33.8381 27.0654 33.3934C33.9059 30.4885 41.674 29.0736 49.977 29.1083C49.5559 28.7502 49.1177 28.3806 48.6624 28.011C38.8911 20.0008 33.2628 12.5393 30.4743 8.20218C29.8938 8.51404 29.3247 8.84322 28.7727 9.18395Z" fill="url(#paint0_linear_2202_524)"/>
<path d="M84.1309 63.543V57.957H100.282C104.568 57.9569 108.048 54.4618 108.048 50.1631V50.1553C108.048 45.855 104.569 42.3674 100.282 42.3672H79.5039V47.0146H100.499C102.233 47.0146 103.638 48.4182 103.638 50.1553V50.1631C103.638 51.8986 102.234 53.3096 100.499 53.3096H79.5039V63.543H84.1309Z" fill="white" stroke="white"/>
<path d="M163.008 64.0117V47.4834H175.235V42.8359H146.152V47.4834H158.38V64.0117H163.008Z" fill="white" stroke="white"/>
<path d="M208.313 55.7383V51.0908H179.734V55.7383H208.313Z" fill="white" stroke="white"/>
<path d="M208.313 47.4727V42.8252H179.734V47.4727H208.313Z" fill="white" stroke="white"/>
<path d="M223.502 64.0117H240.504V59.3643H223.614C220.348 59.3641 217.699 56.7039 217.699 53.4209C217.699 51.7875 218.359 50.2989 219.436 49.2266V49.2275C220.504 48.1479 221.986 47.4854 223.614 47.4854H240.504V42.8379H223.502C217.675 42.8379 212.953 47.576 212.953 53.4209V53.4287C212.953 59.2754 217.675 64.0117 223.502 64.0117Z" fill="white" stroke="white"/>
<path d="M208.313 64.0117V59.3643H179.734V64.0117H208.313Z" fill="white" stroke="white"/>
<path d="M117.91 64.0117V50.0381L118.695 50.5811L138.105 64.0117H141.474V42.8379H136.847V56.8711L136.061 56.3223L116.747 42.8379H113.281V64.0117H117.91Z" fill="white" stroke="white"/>
<path d="M79.8652 77.7422V73.6113H82.7939V73.4258H79.8652V69.7041H83.0742V69.4863H79.5039V77.7422H79.8652Z" fill="white" stroke="white"/>
<path d="M87.501 69.5928C87.5695 69.5928 87.6205 69.5783 87.666 69.5469L87.71 69.5098C87.7642 69.4544 87.791 69.3944 87.791 69.2998C87.791 69.2321 87.7764 69.1809 87.7451 69.1357L87.708 69.0918C87.6487 69.0323 87.5886 69.0068 87.501 69.0068C87.435 69.0068 87.3859 69.0217 87.3418 69.0527L87.2988 69.0898L87.2939 69.0938L87.2568 69.1377C87.2257 69.1822 87.211 69.2324 87.2109 69.2998C87.2109 69.3714 87.2266 69.4224 87.2578 69.4668L87.2939 69.5098L87.2959 69.5117C87.3503 69.5663 87.4091 69.5928 87.501 69.5928ZM87.6787 77.7383V71.8477H87.3232V77.7383H87.6787Z" fill="white" stroke="white"/>
<path d="M92.6006 77.7422V72.2158L92.8848 72.0801C93.0226 72.0141 93.1739 71.9655 93.334 71.9307L93.4961 71.9004C93.7104 71.8661 93.9285 71.8506 94.1455 71.8506C94.2398 71.8506 94.3319 71.8565 94.4219 71.8633L94.4541 71.7188C94.4126 71.718 94.3702 71.7148 94.3271 71.7148C93.8643 71.7149 93.4268 71.7575 93.0146 71.8398H93.0156C92.7334 71.8965 92.4841 71.965 92.2656 72.04V77.7422H92.6006Z" fill="white" stroke="white"/>
<path d="M101.097 77.9023C101.417 77.9023 101.72 77.879 102.007 77.833L102.289 77.7793C102.465 77.7406 102.621 77.6969 102.756 77.6504L102.711 77.5322C102.574 77.5788 102.429 77.621 102.278 77.6562H102.279C101.912 77.7423 101.544 77.7842 101.178 77.7842C100.6 77.7842 100.08 77.6442 99.6475 77.3369L99.4697 77.1963C98.9884 76.7798 98.74 76.1792 98.666 75.4707L98.624 75.0723L98.5635 75.0801L98.5762 74.4902C98.5933 73.7072 98.7693 73.0282 99.1719 72.5225V72.5215C99.5774 72.0102 100.135 71.7471 100.793 71.7471C101.292 71.7472 101.741 71.8959 102.094 72.2129L102.238 72.3594C102.613 72.781 102.763 73.3696 102.771 74.0322L102.775 74.3887L103.04 74.3506V74.2568C103.04 73.4155 102.826 72.8086 102.452 72.3779C102.089 71.9626 101.569 71.7305 100.816 71.7305C100.523 71.7305 100.259 71.7716 100.02 71.8516L99.7881 71.9443C99.5596 72.0532 99.3613 72.1916 99.1904 72.3604L99.0283 72.5391C98.8204 72.7986 98.6547 73.118 98.5322 73.5059H98.5312C98.4125 73.8904 98.3516 74.3228 98.3516 74.8066C98.3516 75.1899 98.3884 75.5345 98.46 75.8418L98.543 76.1367L98.5439 76.1396C98.6381 76.4269 98.7624 76.6771 98.9131 76.8945L99.0723 77.1016C99.2371 77.2932 99.4306 77.4511 99.6572 77.5762L99.8955 77.6904H99.8965C100.225 77.8268 100.622 77.9023 101.097 77.9023Z" fill="white" stroke="white"/>
<path d="M113.089 77.9023C113.397 77.9023 113.676 77.869 113.927 77.8076L114.169 77.7373C114.401 77.656 114.601 77.5511 114.771 77.4248L114.934 77.29C115.088 77.1468 115.217 76.9828 115.319 76.7959L115.413 76.6016V76.6006C115.524 76.3378 115.585 76.0267 115.585 75.6631C115.585 75.4142 115.552 75.2024 115.494 75.0234L115.428 74.8545C115.316 74.6175 115.175 74.419 115.007 74.2539C114.865 74.1181 114.714 73.9969 114.554 73.8926L114.39 73.7939L114.388 73.792C114.14 73.6519 113.897 73.5265 113.66 73.4111C113.462 73.3222 113.261 73.2217 113.063 73.1074C112.907 73.0178 112.761 72.9211 112.628 72.8154L112.501 72.709C112.365 72.5895 112.247 72.4569 112.148 72.3105L112.057 72.1592C111.928 71.9251 111.866 71.6662 111.866 71.3945C111.866 70.9266 112.011 70.5099 112.32 70.1875L112.463 70.0557C112.845 69.7412 113.319 69.6025 113.84 69.6025C114.181 69.6026 114.518 69.6567 114.844 69.7705L114.845 69.7695C114.92 69.7951 114.991 69.8221 115.061 69.8486L115.151 69.6016C115.112 69.5864 115.072 69.5693 115.028 69.5547L114.812 69.4893C114.514 69.4091 114.175 69.3652 113.79 69.3652C113.416 69.3652 113.09 69.4197 112.809 69.5205C112.593 69.5975 112.407 69.6969 112.246 69.8164L112.093 69.9424L112.092 69.9443L111.956 70.082C111.871 70.179 111.797 70.2857 111.733 70.4023L111.646 70.584C111.543 70.8339 111.485 71.1285 111.485 71.4746C111.485 71.8049 111.545 72.0657 111.646 72.2744C111.735 72.4568 111.839 72.6153 111.956 72.751L112.078 72.8789L112.08 72.8809C112.218 73.0141 112.37 73.1359 112.537 73.2441L112.709 73.3477L112.711 73.3496C112.971 73.4983 113.23 73.6338 113.486 73.7578L113.485 73.7588C113.678 73.8456 113.866 73.9375 114.044 74.0352L113.804 74.4736L114.045 74.0352L114.048 74.0371C114.195 74.1198 114.336 74.212 114.467 74.3174L114.595 74.4277C114.768 74.5885 114.907 74.7731 115.011 74.9795L115.01 74.9805C115.128 75.2132 115.179 75.4673 115.179 75.7266C115.179 76.2212 115.024 76.6582 114.695 76.9951L114.544 77.1328C114.132 77.4674 113.613 77.6103 113.038 77.6104C112.767 77.6104 112.499 77.5811 112.235 77.5234L111.973 77.4561C111.859 77.4221 111.749 77.3847 111.644 77.3447L111.524 77.6543C111.655 77.6999 111.804 77.7435 111.973 77.7822L111.972 77.7832C112.328 77.8635 112.699 77.9023 113.089 77.9023Z" fill="white" stroke="white"/>
<path d="M122.413 77.9023C122.733 77.9023 123.036 77.879 123.323 77.833L123.605 77.7793C123.782 77.7406 123.937 77.6969 124.072 77.6504L124.027 77.5322C123.89 77.5788 123.746 77.621 123.595 77.6562H123.596C123.229 77.7423 122.861 77.7842 122.494 77.7842C121.916 77.7842 121.396 77.6442 120.964 77.3369L120.786 77.1963C120.305 76.7798 120.056 76.1792 119.982 75.4707L119.94 75.0723L119.88 75.0801L119.893 74.4902C119.908 73.803 120.046 73.1975 120.349 72.7188L120.488 72.5215C120.894 72.0102 121.451 71.7471 122.109 71.7471C122.609 71.7472 123.057 71.8959 123.41 72.2129L123.555 72.3594C123.93 72.781 124.079 73.3696 124.088 74.0322L124.092 74.3887L124.356 74.3506V74.2568C124.356 73.4155 124.143 72.8086 123.769 72.3779C123.406 71.9626 122.886 71.7305 122.133 71.7305C121.84 71.7305 121.575 71.7716 121.336 71.8516L121.104 71.9443C120.876 72.0532 120.678 72.1916 120.507 72.3604L120.345 72.5391C120.137 72.7986 119.971 73.118 119.849 73.5059H119.848C119.729 73.8904 119.668 74.3228 119.668 74.8066C119.668 75.1899 119.705 75.5345 119.776 75.8418L119.859 76.1367L119.86 76.1396C119.954 76.4269 120.079 76.6771 120.229 76.8945L120.389 77.1016C120.553 77.2932 120.747 77.4511 120.974 77.5762L121.212 77.6904H121.213C121.541 77.8268 121.938 77.9023 122.413 77.9023Z" fill="white" stroke="white"/>
<path d="M130.837 77.9023C131.073 77.9023 131.282 77.8803 131.464 77.8408L131.638 77.7959C131.724 77.7692 131.805 77.7377 131.882 77.7051L131.829 77.5771L131.742 77.6074L131.74 77.6084L131.562 77.6572C131.383 77.6999 131.197 77.7227 131.005 77.7227C130.714 77.7227 130.434 77.6582 130.169 77.5371C129.883 77.4063 129.643 77.2049 129.443 76.9521C129.29 76.7573 129.167 76.5334 129.07 76.2881L128.981 76.0361L128.98 76.0332C128.869 75.6689 128.82 75.2518 128.82 74.7949C128.82 74.4573 128.848 74.1397 128.908 73.8477L128.979 73.5635L128.98 73.5605C129.061 73.3003 129.164 73.0601 129.295 72.8477L129.437 72.6445C129.586 72.4547 129.757 72.2975 129.951 72.1758L130.153 72.0654H130.155C130.425 71.9406 130.712 71.8799 131.005 71.8799C131.195 71.8799 131.38 71.901 131.562 71.9434L131.74 71.9922L131.747 71.9941C131.776 72.0038 131.804 72.0159 131.833 72.0264L131.878 71.9219C131.858 71.9135 131.838 71.9036 131.816 71.8955L131.646 71.8379L131.645 71.8369C131.422 71.7689 131.153 71.7305 130.837 71.7305C130.605 71.7305 130.379 71.763 130.16 71.8281L129.942 71.9043L129.94 71.9053L129.739 71.999C129.609 72.0691 129.485 72.154 129.369 72.2559L129.2 72.4219L129.199 72.4229L129.043 72.6113C128.943 72.7468 128.852 72.9027 128.77 73.0811L128.652 73.3662V73.3682L128.603 73.5176C128.493 73.8749 128.434 74.3014 128.434 74.8066C128.434 75.3159 128.493 75.7439 128.603 76.0996L128.651 76.248L128.652 76.25C128.762 76.5515 128.894 76.8024 129.045 77.0088L129.201 77.2002L129.202 77.2021C129.42 77.4415 129.666 77.6128 129.942 77.7266C130.231 77.8435 130.529 77.9023 130.837 77.9023Z" fill="white" stroke="white"/>
<path d="M140.035 77.3682L139.75 77.5039C139.62 77.5659 139.47 77.6127 139.31 77.6494L139.146 77.6826C138.906 77.7272 138.645 77.747 138.366 77.7471C137.846 77.7471 137.363 77.62 137.013 77.2783C136.661 76.9345 136.528 76.4571 136.528 75.9424V71.8672H136.191V75.917L136.201 76.1982C136.245 76.8212 136.435 77.2051 136.698 77.4336L136.697 77.4346C137.028 77.7197 137.559 77.9023 138.366 77.9023C138.72 77.9023 139.055 77.8778 139.374 77.8311L139.688 77.7773C139.958 77.7234 140.179 77.6587 140.358 77.5908V71.8672H140.035V77.3682Z" fill="white" stroke="white"/>
<path d="M145.249 77.7422V72.2139L145.536 72.0791C145.673 72.0145 145.822 71.9656 145.981 71.9307L146.145 71.9004C146.359 71.8661 146.577 71.8506 146.794 71.8506C146.888 71.8506 146.98 71.8565 147.07 71.8633L147.103 71.7188C147.061 71.718 147.019 71.7148 146.976 71.7148C146.513 71.7149 146.075 71.7575 145.663 71.8398H145.664C145.382 71.8965 145.133 71.965 144.914 72.04V77.7422H145.249Z" fill="white" stroke="white"/>
<path d="M151.462 69.5928C151.53 69.5928 151.579 69.5787 151.625 69.5469L151.669 69.5098C151.723 69.4566 151.75 69.3986 151.75 69.2998C151.75 69.2298 151.735 69.1793 151.705 69.1357L151.669 69.0938L151.667 69.0918C151.607 69.0313 151.548 69.0068 151.462 69.0068C151.395 69.0068 151.346 69.0212 151.3 69.0537L151.255 69.0918C151.198 69.1486 151.172 69.2094 151.172 69.2998C151.172 69.3944 151.199 69.4544 151.253 69.5098C151.311 69.5673 151.369 69.5928 151.462 69.5928ZM151.64 77.7383V71.8477H151.284V77.7383H151.64Z" fill="white" stroke="white"/>
<path d="M157.976 77.8281C158.095 77.8281 158.202 77.8183 158.303 77.8027V77.6035C157.981 77.593 157.681 77.4974 157.427 77.2988C157.087 77.0333 156.979 76.627 156.979 76.2305V71.8994H158.303V71.8506H156.979V70.0186L156.666 70.1191V71.8506H155.777V71.8994H156.666V76.3125C156.666 76.919 156.807 77.2798 156.997 77.4844L156.998 77.4834C157.192 77.6911 157.492 77.8281 157.976 77.8281Z" fill="white" stroke="white"/>
<path d="M167.07 71.8486H166.656L165.328 76.1748L165.325 76.1855L165.321 76.1953L165.274 76.3428L165.235 76.4971L165.175 76.8027L165.173 76.8105L165.146 76.9639L165.132 77.1006L165.116 77.3242L167.07 71.8486ZM164.113 77.1396L164.056 76.8242L163.989 76.5166L163.897 76.167L162.573 71.8486H162.159L164.154 77.418L164.113 77.1396ZM163.988 80.4844L165.03 77.5654H164.208L164.389 78.0703L164.449 78.2393L164.389 78.4082L163.641 80.4844H163.988Z" fill="white" stroke="white"/>
<defs>
<linearGradient id="paint0_linear_2202_524" x1="21.0737" y1="117.411" x2="44.5989" y2="1.01838" gradientUnits="userSpaceOnUse">
<stop stop-color="#F7941D"/>
<stop offset="1" stop-color="#603913"/>
</linearGradient>
</defs>
</svg>
