<svg width="69" height="108" viewBox="0 0 69 108" fill="none" xmlns="http://www.w3.org/2000/svg">
<path d="M17.5275 106.877C16.6511 107.749 15.4218 108.147 14.2097 107.951C12.2691 107.627 11.626 106.605 8.5472 101.691C7.62527 100.224 5.69036 97.0877 5.39443 96.4871C1.19454 88.0496 -0.60948 79.0981 0.181557 70.5855C0.693739 65.0587 2.18476 59.7859 4.50665 54.9752C4.63754 54.698 4.17658 53.5026 4.10829 53.1734C3.96032 52.4457 3.82943 51.7123 3.71561 50.973C3.47659 49.4426 3.30018 47.8949 3.19205 46.3471C2.74247 39.9136 3.49367 34.2597 5.56516 28.2535C7.96103 21.3003 11.5861 14.6935 16.5998 9.32833C19.9802 5.71308 23.9866 2.70999 28.4369 0.590509C31.2539 -0.755105 34.6059 0.2671 36.2335 2.9641C38.009 5.89789 43.239 13.6251 53.4485 21.9875C62.5255 29.4201 71.2553 38.8336 67.2034 52.3418C65.9969 56.3613 63.6864 60.196 60.528 63.4301L45.4641 78.844C44.1438 80.1954 42.0951 80.617 40.4334 79.7392C38.7261 78.8382 37.8554 76.9382 38.2708 75.0382C38.3107 74.8707 38.3391 74.7205 38.3619 74.5646C38.8058 71.8965 38.379 68.697 37.0814 65.0471C34.7254 58.4115 30.3434 51.5968 25.6541 47.2654C25.1703 46.8149 24.6866 46.376 24.2029 45.9429C23.7305 45.5155 23.2525 45.0824 22.7745 44.6435C18.6372 47.6697 15.1942 51.5275 12.6447 55.9512C17.4136 71.4922 29.5467 79.0461 34.0709 81.3908C36.0058 82.3899 37.1269 84.6654 36.5351 86.9697C36.3075 87.859 35.8067 88.656 35.1579 89.297L17.5275 106.877ZM8.62118 66.0924C8.22281 67.7903 7.93258 69.5344 7.76754 71.3074C7.11309 78.3647 8.64394 85.8608 12.1951 92.9932C12.4682 93.4898 14.0048 95.9962 15.3763 98.1735L27.2475 86.3286C22.2964 83.1638 14.0845 76.7072 8.62118 66.0924ZM29.78 40.6182C30.1101 40.9185 30.4458 41.2246 30.7816 41.5307C36.4213 46.7399 41.4577 54.5421 44.252 62.4136C44.8894 64.2039 45.3674 65.948 45.6861 67.6228L55.1159 57.9725C57.4094 55.6221 59.0711 52.8962 59.9134 50.0779C61.0971 46.1335 61.0402 42.2179 57.7793 37.3841C47.547 36.05 37.9806 37.1242 30.0076 40.5142C29.9279 40.5546 29.854 40.5893 29.78 40.6182ZM10.761 45.2961L10.7667 45.3654C12.7755 43.0149 15.0235 40.8665 17.4933 38.9723C17.2201 38.6084 16.9527 38.233 16.6909 37.8519C15.1202 35.536 13.9365 32.7524 13.1682 29.7147C13.1398 29.7955 13.1056 29.8821 13.0772 29.963C11.2902 34.8603 10.4593 40.0811 10.761 45.2961ZM28.7727 9.18395C21.2436 13.8561 18.0339 23.4775 21.8753 31.5338C22.2054 32.2269 22.5753 32.8737 22.9793 33.4743C23.298 33.9479 23.6338 34.3983 23.9866 34.843C24.9882 34.3232 26.0126 33.8381 27.0654 33.3934C33.9059 30.4885 41.674 29.0736 49.977 29.1083C49.5559 28.7502 49.1177 28.3806 48.6624 28.011C38.8911 20.0008 33.2628 12.5393 30.4743 8.20218C29.8938 8.51404 29.3247 8.84322 28.7727 9.18395Z" fill="url(#paint0_linear_2246_526)"/>
<defs>
<linearGradient id="paint0_linear_2246_526" x1="21.0737" y1="117.411" x2="44.5989" y2="1.01838" gradientUnits="userSpaceOnUse">
<stop stop-color="#F7941D"/>
<stop offset="1" stop-color="#603913"/>
</linearGradient>
</defs>
</svg>
