<svg width="26" height="41" viewBox="0 0 26 41" fill="none" xmlns="http://www.w3.org/2000/svg">
<path d="M6.67632 40.0802C6.34852 40.4035 5.88024 40.5574 5.41195 40.4805C4.6783 40.3573 4.42854 39.9878 3.25782 38.1559C2.91441 37.6171 2.16516 36.4471 2.05589 36.2316C0.448101 33.1066 -0.238721 29.7814 0.0734704 26.6409C0.276395 24.5935 0.838339 22.6384 1.72809 20.8527C1.77491 20.7449 1.60321 20.3139 1.57199 20.1907C1.50955 19.9136 1.46272 19.6519 1.4159 19.3748C1.32224 18.8052 1.2598 18.2356 1.21297 17.666C1.04126 15.2799 1.32224 13.1863 2.11833 10.9695C3.03929 8.39863 4.41294 5.95092 6.33292 3.94966C7.62851 2.61035 9.14264 1.50196 10.8441 0.716844C11.9211 0.224224 13.2011 0.593688 13.8099 1.59432C14.4811 2.68732 16.4791 5.55067 20.3659 8.64494C23.8313 11.4005 27.1561 14.8797 25.6108 19.8982C25.1581 21.3915 24.2683 22.8077 23.0664 24.0085L17.3221 29.7198C16.8226 30.2278 16.0421 30.3818 15.4021 30.0585C14.7465 29.7198 14.4187 29.0271 14.5748 28.3189C14.5904 28.2573 14.606 28.1958 14.606 28.1496C14.7777 27.1643 14.606 25.979 14.1221 24.6243C13.2167 22.1612 11.5465 19.6365 9.76702 18.0355C9.57971 17.8662 9.3924 17.7122 9.22069 17.5429C9.03337 17.3889 8.86167 17.2196 8.67435 17.0656C7.09778 18.1894 5.78658 19.6211 4.81878 21.2529C6.62949 27.0104 11.2655 29.8122 12.9826 30.6743C13.7162 31.0437 14.1533 31.8904 13.9192 32.7371C13.8255 33.0604 13.6382 33.3683 13.3884 33.5992L6.67632 40.0802ZM3.28904 24.9629C3.13295 25.5941 3.02368 26.2407 2.96124 26.9026C2.71149 29.5197 3.28905 32.2907 4.64708 34.9385C4.75635 35.1232 5.3339 36.0469 5.86463 36.8628L10.3914 32.4754C8.50265 31.29 5.36512 28.9039 3.28904 24.9629ZM11.3436 15.5262C11.4685 15.634 11.5933 15.7571 11.7182 15.8649C13.8723 17.7892 15.7923 20.6833 16.8538 23.6083C17.1035 24.2702 17.2752 24.9168 17.4001 25.5325L20.9903 21.9611C21.8645 21.0836 22.5044 20.0829 22.8166 19.0361C23.2693 17.5737 23.2537 16.1266 22.0049 14.3408C18.1025 13.8482 14.4499 14.2485 11.4216 15.4954C11.406 15.5108 11.3748 15.5262 11.3436 15.5262ZM4.10074 17.2658V17.2966C4.86561 16.4191 5.72414 15.634 6.66072 14.9258C6.55145 14.7873 6.45779 14.6487 6.34853 14.5102C5.75536 13.6481 5.30268 12.6167 5.0061 11.4929C4.99049 11.5237 4.99049 11.5545 4.97488 11.5853C4.30367 13.4018 3.97587 15.3261 4.10074 17.2658ZM10.969 3.88808C8.0968 5.61225 6.87925 9.18374 8.34655 12.1702C8.47143 12.4319 8.61191 12.6629 8.76801 12.8938C8.89289 13.0631 9.01776 13.2325 9.15825 13.4018C9.53288 13.2017 9.93873 13.0323 10.329 12.863C12.9358 11.7854 15.9016 11.262 19.0703 11.2774C18.9142 11.1388 18.7425 11.0157 18.5708 10.8771C14.8401 7.90601 12.7016 5.15042 11.6402 3.53401C11.3904 3.64177 11.1719 3.76493 10.969 3.88808Z" fill="white"/>
</svg>
