<svg width="1096" height="896" viewBox="0 0 1096 896" fill="none" xmlns="http://www.w3.org/2000/svg">
<g clip-path="url(#clip0_2188_6218)">
<g filter="url(#filter0_d_2188_6218)">
<path d="M281.577 1429.01C267.498 1442.97 247.751 1449.36 228.277 1446.21C197.102 1441.03 186.771 1424.66 137.31 1345.93C122.499 1322.43 91.4153 1272.2 86.6612 1262.58C19.1902 1127.42 -9.79125 984.034 2.9167 847.675C11.1449 759.144 35.098 674.682 72.399 597.622C74.5018 593.181 67.0964 574.032 65.9994 568.759C63.6223 557.103 61.5196 545.354 59.6911 533.513C55.8513 508.998 53.0171 484.205 51.2801 459.412C44.0576 356.357 56.1255 265.79 89.4039 169.58C127.893 58.1985 186.131 -47.6325 266.675 -133.574C320.981 -191.485 385.344 -239.59 456.838 -273.541C502.092 -295.096 555.941 -278.721 582.089 -235.519C610.613 -188.525 694.632 -64.7468 858.647 69.2071C1004.47 188.267 1144.71 339.057 1079.62 555.437C1060.24 619.824 1023.12 681.25 972.378 733.056L730.379 979.964C709.168 1001.61 676.255 1008.36 649.56 994.303C622.132 979.872 608.144 949.436 614.818 919C615.458 916.317 615.916 913.912 616.281 911.414C623.412 868.675 616.556 817.425 595.711 758.958C557.861 652.665 487.465 543.504 412.131 474.121C404.36 466.906 396.589 459.875 388.818 452.937C381.23 446.091 373.55 439.153 365.871 432.122C299.405 480.597 244.094 542.394 203.136 613.256C279.749 862.199 474.665 983.202 547.347 1020.76C578.432 1036.76 596.442 1073.21 586.934 1110.12C583.277 1124.37 575.232 1137.14 564.809 1147.41L281.577 1429.01ZM138.499 775.703C132.099 802.901 127.436 830.839 124.785 859.239C114.271 972.286 138.864 1092.36 195.913 1206.61C200.301 1214.57 224.986 1254.72 247.019 1289.59L437.73 1099.86C358.191 1049.16 226.266 945.735 138.499 775.703ZM478.414 367.643C483.716 372.453 489.11 377.357 494.504 382.26C585.106 465.703 666.016 590.684 710.905 716.774C721.145 745.452 728.824 773.39 733.944 800.218L885.434 645.634C922.278 607.983 948.974 564.318 962.504 519.174C981.521 455.99 980.606 393.268 928.22 315.838C763.84 294.468 610.156 311.675 482.071 365.978C480.791 366.625 479.602 367.18 478.414 367.643ZM172.874 442.576L172.966 443.686C205.238 406.034 241.351 371.621 281.029 341.278C276.641 335.45 272.344 329.437 268.138 323.331C242.905 286.235 223.889 241.645 211.547 192.985C211.089 194.28 210.541 195.668 210.084 196.963C181.377 275.411 168.029 359.04 172.874 442.576ZM462.232 -135.887C341.277 -61.0464 289.714 93.0746 351.425 222.125C356.728 233.227 362.671 243.588 369.162 253.209C374.282 260.794 379.676 268.01 385.344 275.133C401.435 266.808 417.891 259.037 434.804 251.914C544.696 205.381 669.49 182.716 802.878 183.271C796.112 177.536 789.073 171.615 781.759 165.695C624.784 37.3838 534.365 -82.1386 489.567 -151.613C480.242 -146.618 471.1 -141.345 462.232 -135.887Z" fill="white" fill-opacity="0.03" shape-rendering="crispEdges"/>
</g>
</g>
<defs>
<filter id="filter0_d_2188_6218" x="-40" y="-323" width="1176" height="1810" filterUnits="userSpaceOnUse" color-interpolation-filters="sRGB">
<feFlood flood-opacity="0" result="BackgroundImageFix"/>
<feColorMatrix in="SourceAlpha" type="matrix" values="0 0 0 0 0 0 0 0 0 0 0 0 0 0 0 0 0 0 127 0" result="hardAlpha"/>
<feOffset/>
<feGaussianBlur stdDeviation="20"/>
<feComposite in2="hardAlpha" operator="out"/>
<feColorMatrix type="matrix" values="0 0 0 0 0 0 0 0 0 0 0 0 0 0 0 0 0 0 0.2 0"/>
<feBlend mode="normal" in2="BackgroundImageFix" result="effect1_dropShadow_2188_6218"/>
<feBlend mode="normal" in="SourceGraphic" in2="effect1_dropShadow_2188_6218" result="shape"/>
</filter>
<clipPath id="clip0_2188_6218">
<rect width="1096" height="896" fill="white"/>
</clipPath>
</defs>
</svg>
