<svg width="634" height="492" viewBox="0 0 634 492" fill="none" xmlns="http://www.w3.org/2000/svg">
<g clip-path="url(#clip0_2188_6280)">
<g filter="url(#filter0_d_2188_6280)">
<path d="M150.822 633.332C143.152 639.709 132.979 642.034 123.365 639.597C107.98 635.622 103.531 626.96 82.2435 585.323C75.8657 572.893 62.5207 546.347 60.5655 541.315C32.7553 470.604 24.5867 397.47 36.9867 329.704C45.0262 285.705 60.7612 244.442 82.8539 207.477C84.1036 205.345 81.2423 195.422 80.9262 192.731C80.2516 186.785 79.7184 180.805 79.3268 174.79C78.4887 162.336 78.1665 149.787 78.3939 137.287C79.3379 85.327 89.3906 40.4783 110.316 -6.25976C134.523 -60.3697 168.375 -110.825 212.519 -150.326C242.281 -176.943 276.645 -198.2 313.955 -212.05C337.575 -220.849 363.82 -210.262 375.003 -187.457C387.21 -162.646 423.811 -96.9052 500.028 -22.526C567.792 43.5851 631.358 125.35 589.179 230.897C576.622 262.303 555.313 291.441 527.607 315.156L395.475 428.175C383.894 438.084 367.111 440.012 354.363 431.784C341.265 423.34 335.606 407.47 340.296 392.514C340.735 391.198 341.071 390.013 341.364 388.777C346.828 367.676 345.662 341.692 337.81 311.473C323.558 256.535 293.132 198.721 258.472 160.621C254.9 156.662 251.319 152.795 247.734 148.974C244.236 145.208 240.697 141.392 237.162 137.529C201.728 158.879 171.29 187.398 147.64 221.095C174.993 349.228 267.26 418.485 302 440.521C316.86 449.915 324.267 468.976 317.871 487.052C315.409 494.029 310.814 500.07 305.14 504.754L150.822 633.332ZM108.077 299.637C103.668 312.982 100.097 326.775 97.5117 340.889C87.2425 397.071 94.245 458.329 117.761 518.103C119.606 522.284 130.192 543.494 139.684 561.945L243.598 475.306C206.005 446.384 144.509 388.722 108.077 299.637ZM296.382 110.198C298.825 112.843 301.31 115.538 303.794 118.234C345.478 164.055 380.469 230.261 397.371 295.43C401.23 310.254 403.84 324.593 405.217 338.263L487.931 267.503C508.051 250.266 523.354 229.567 532.128 207.544C544.449 176.724 546.767 145.254 523.957 104.137C442.574 86.1568 364.841 87.9803 298.287 109.525C297.618 109.793 296.998 110.018 296.382 110.198ZM140.039 134.229L140.035 134.79C157.865 117.351 177.475 101.704 198.691 88.2542C196.751 85.1396 194.865 81.9364 193.029 78.6908C182.033 58.9858 174.482 35.801 170.454 10.8717C170.168 11.5005 169.832 12.1716 169.546 12.8003C151.696 50.8403 141.309 92.1556 140.039 134.229ZM310.564 -142.834C246.673 -110.683 214.026 -35.7348 239.222 31.6619C241.386 37.4592 243.904 42.9139 246.729 48.0221C248.958 52.0498 251.34 55.9042 253.863 59.7244C262.291 56.2642 270.877 53.0982 279.663 50.2771C336.761 31.8214 400.266 25.9849 467.048 32.1639C463.913 28.9905 460.65 25.7123 457.249 22.422C384.308 -48.8182 344.313 -112.71 324.951 -149.505C320.059 -147.415 315.247 -145.177 310.564 -142.834Z" fill="white" fill-opacity="0.03" shape-rendering="crispEdges"/>
</g>
</g>
<defs>
<filter id="filter0_d_2188_6280" x="-16.6455" y="-263.135" width="667.393" height="951.68" filterUnits="userSpaceOnUse" color-interpolation-filters="sRGB">
<feFlood flood-opacity="0" result="BackgroundImageFix"/>
<feColorMatrix in="SourceAlpha" type="matrix" values="0 0 0 0 0 0 0 0 0 0 0 0 0 0 0 0 0 0 127 0" result="hardAlpha"/>
<feOffset/>
<feGaussianBlur stdDeviation="24"/>
<feComposite in2="hardAlpha" operator="out"/>
<feColorMatrix type="matrix" values="0 0 0 0 0 0 0 0 0 0 0 0 0 0 0 0 0 0 0.2 0"/>
<feBlend mode="normal" in2="BackgroundImageFix" result="effect1_dropShadow_2188_6280"/>
<feBlend mode="normal" in="SourceGraphic" in2="effect1_dropShadow_2188_6280" result="shape"/>
</filter>
<clipPath id="clip0_2188_6280">
<rect width="634" height="492" fill="white"/>
</clipPath>
</defs>
</svg>
